<svg width="87" height="75" viewBox="0 0 87 75" fill="none" xmlns="http://www.w3.org/2000/svg">
<path d="M70.3087 73.0773L70.2458 73.1264L70.2083 73.1969C69.9377 73.7059 69.343 74.0883 68.37 74.3295C67.4043 74.5688 66.1375 74.6504 64.6368 74.6183C62.0141 74.5621 58.7573 74.1616 55.2975 73.7145C55.3082 73.7104 55.3189 73.7062 55.3297 73.702C56.2193 73.3556 57.4306 72.858 58.7162 72.2538C60.0006 71.6502 61.3659 70.9371 62.5605 70.1585C63.6275 69.4632 64.5837 68.6996 65.219 67.8965C65.2315 67.9035 65.2443 67.9107 65.2575 67.9181C65.4622 68.0336 65.7526 68.2008 66.0941 68.4072C66.7783 68.8207 67.6617 69.3879 68.4701 70.0082C69.2875 70.6354 69.9921 71.2899 70.354 71.8731C70.5342 72.1636 70.6059 72.3993 70.5992 72.5817C70.5932 72.7438 70.5242 72.9091 70.3087 73.0773Z" fill="#FFD057" stroke="black" stroke-width="0.75"/>
<path d="M27.855 72.7722C27.8481 72.7739 27.8413 72.7755 27.8345 72.7772C26.6342 73.0712 25.0072 73.4442 23.2962 73.7611C21.5822 74.0786 19.7979 74.3373 18.279 74.4073C17.5193 74.4422 16.839 74.4293 16.2737 74.3571C15.6994 74.2838 15.2894 74.1546 15.0354 73.9902C14.7674 73.8167 14.6139 73.6183 14.5327 73.4117C14.45 73.2015 14.4288 72.9484 14.4831 72.6498C14.5942 72.0396 15.0112 71.3043 15.6848 70.5779C16.9639 69.1985 18.9922 68.0364 20.9094 67.9194C20.9676 68.0308 21.044 68.1664 21.142 68.3211C21.4136 68.7501 21.8502 69.3253 22.5209 69.9404C23.6067 70.9364 25.2922 72.0245 27.855 72.7722Z" fill="#FFD057" stroke="black"/>
<path d="M43.0426 73.6518L43.0255 73.6507H43.0084C37.465 73.6507 33.1477 73.3365 29.7848 72.5539C26.4286 71.773 24.0555 70.5331 22.363 68.7032C20.6683 66.8709 19.6096 64.397 18.9782 61.0597C18.346 57.718 18.1494 53.5511 18.1494 48.3674V48.2416L18.0899 48.1308C17.8447 47.6743 17.3621 47.5343 16.9309 47.5108C16.4893 47.4867 15.9559 47.5724 15.3822 47.7156C14.2273 48.0037 12.752 48.5667 11.196 49.1995C10.6069 49.4391 10.0066 49.6885 9.40382 49.9389C8.39727 50.3571 7.38368 50.7782 6.40365 51.1613C4.83616 51.7739 3.40686 52.2677 2.30723 52.4758C1.75486 52.5803 1.32478 52.6047 1.01846 52.557C0.7189 52.5103 0.609505 52.4092 0.561061 52.3193C0.500388 52.2067 0.452335 51.9614 0.583156 51.4718C0.711325 50.9921 0.991958 50.3519 1.47353 49.5192C3.40668 46.1764 8.32734 40.1466 18.0128 29.9L18.1424 29.7629L18.1491 29.5743C18.4594 20.8289 20.1409 13.5644 23.9847 8.4931C27.8055 3.45212 33.8246 0.5 43.0084 0.5C52.8086 0.5 59.5994 4.42164 63.6594 9.97244C67.7308 15.5388 69.087 22.7866 67.9165 29.4703L67.8717 29.7265L68.0557 29.9103C78.3784 40.2231 83.5571 46.1961 85.544 49.4392C86.0393 50.2476 86.3166 50.8557 86.434 51.2988C86.5536 51.7504 86.484 51.9358 86.435 52.0046C86.3861 52.0731 86.2523 52.1734 85.8859 52.1999C85.5281 52.2259 85.0434 52.1727 84.4412 52.0416C83.2414 51.7805 81.7057 51.2405 80.049 50.6028C79.2605 50.2993 78.4512 49.9763 77.6438 49.654L77.5313 49.6091C76.688 49.2726 75.8479 48.9379 75.044 48.6311C73.4467 48.0217 71.9528 47.5069 70.8309 47.3099C70.2785 47.2129 69.7495 47.1798 69.3261 47.296C69.1059 47.3565 68.8897 47.464 68.7201 47.6471C68.5465 47.8345 68.454 48.0664 68.4284 48.3164C68.3603 48.9812 68.3804 49.9198 68.4035 51.0002L68.4039 51.0186L68.4042 51.0351C68.4278 52.1348 68.4551 53.4129 68.4097 54.7984C68.3185 57.5859 67.9333 60.774 66.6514 63.7285C65.3744 66.6714 63.2042 69.3924 59.5134 71.2599C55.812 73.1328 50.5431 74.1665 43.0426 73.6518Z" fill="black" stroke="#444141"/>
<path d="M60.5544 38.5571L60.4468 38.7124L60.5667 38.8583C64.7788 43.9845 67.2337 51.8693 65.2813 58.5133C64.3073 61.8278 62.2354 64.8412 58.7225 67.0627C55.2062 69.2863 50.2323 70.7248 43.4456 70.8581C36.1831 70.8577 30.9754 69.2517 27.3737 66.7643C23.7744 64.2786 21.7599 60.8998 20.9032 57.3144C20.0456 53.7251 20.3485 49.9261 21.3929 46.6159C22.4383 43.3023 24.2185 40.5032 26.2893 38.8971L26.4743 38.7536L26.3432 38.5595C20.8241 30.3944 20.909 21.8143 24.4266 16.4845C26.1844 13.8211 28.8013 11.9623 32.0227 11.3547C35.2454 10.7468 39.0972 11.387 43.3253 13.7684L43.4374 13.8315L43.554 13.777C48.4532 11.483 52.5127 11.0919 55.7027 11.965C58.8893 12.8373 61.2418 14.9802 62.7161 17.8237C65.6716 23.5243 65.0821 32.0239 60.5544 38.5571Z" fill="white" stroke="black" stroke-width="0.5"/>
<path d="M49.4934 32.4085C49.4934 35.6391 46.8837 38.2559 43.6671 38.2559C40.4505 38.2559 37.8408 35.6391 37.8408 32.4085C37.8408 31.5899 38.0078 31.1394 38.2343 30.8827C38.4559 30.6316 38.7956 30.4974 39.3118 30.4565C39.8329 30.4152 40.4655 30.4734 41.2161 30.5483C41.2474 30.5514 41.2789 30.5546 41.3106 30.5577C42.0252 30.6292 42.8262 30.7093 43.6671 30.7093C44.508 30.7093 45.3091 30.6292 46.0236 30.5577C46.0553 30.5546 46.0868 30.5514 46.1182 30.5483C46.8687 30.4734 47.5013 30.4152 48.0224 30.4565C48.5386 30.4974 48.8783 30.6316 49.0999 30.8827C49.3264 31.1394 49.4934 31.5899 49.4934 32.4085Z" fill="#FFD057" stroke="black" stroke-width="0.75"/>
<ellipse cx="52.711" cy="22.8156" rx="3.10064" ry="3.11122" fill="#444141"/>
<ellipse cx="34.6241" cy="22.8156" rx="3.10064" ry="3.11122" fill="#444141"/>
</svg>
