<svg width="499" height="434" viewBox="0 0 499 434" fill="none" xmlns="http://www.w3.org/2000/svg">
<path d="M432.632 488.253L432.616 488.258L432.6 488.264C402.404 499.254 378.105 506.17 358.003 508.62C337.907 511.07 322.038 509.051 308.673 502.204C295.305 495.356 284.382 483.647 274.238 466.598C264.092 449.546 254.746 427.187 244.517 399.083L244.474 398.965L244.38 398.881C243.784 398.351 242.806 397.716 241.516 396.99C240.217 396.26 238.573 395.42 236.623 394.482C232.723 392.607 227.579 390.328 221.487 387.723C212.389 383.834 201.164 379.213 188.789 374.119C184.592 372.391 180.264 370.609 175.841 368.783C140.899 354.355 100.084 337.157 72.0764 322.111C58.0553 314.578 47.313 307.619 42.1023 301.85C39.4835 298.951 38.3777 296.478 38.756 294.456C39.1291 292.462 41.0027 290.649 45.0301 289.205C49.0345 287.768 55.0195 286.754 63.3054 286.255C71.5838 285.758 82.129 285.777 95.2371 286.392C121.453 287.623 157.89 291.237 206.893 297.852L207.68 297.959L207.435 297.203C191.825 249.045 186.475 205.796 197.594 170.02C208.702 134.28 236.277 105.902 286.746 87.5329C340.699 67.8954 386.162 75.7453 419.861 98.2314C453.576 120.728 475.56 157.905 482.472 196.986L482.517 197.243L482.754 197.353C559.174 232.768 599.373 254.984 616.829 268.824C621.191 272.282 624.104 275.196 625.807 277.639C627.516 280.09 627.954 281.985 627.543 283.457C627.132 284.929 625.823 286.153 623.614 287.143C621.413 288.129 618.41 288.838 614.788 289.332C607.549 290.319 597.971 290.428 587.703 290.253C582.8 290.169 577.747 290.02 572.723 289.873L572.025 289.852C566.773 289.698 561.563 289.548 556.608 289.478C546.709 289.337 537.784 289.514 531.549 290.622C528.44 291.175 525.933 291.969 524.308 293.12C523.488 293.7 522.87 294.387 522.527 295.199C522.181 296.017 522.131 296.92 522.377 297.896C523.278 301.475 525.186 306.391 527.482 312.302L527.523 312.409C529.816 318.311 532.504 325.23 535.009 332.887C540.051 348.294 544.34 366.654 543.168 385.625C541.997 404.584 535.372 424.164 518.56 442.037C501.74 459.918 474.695 476.12 432.632 488.253Z" fill="black" stroke="#444141"/>
<path d="M458.134 258.692L458.085 258.876L458.249 258.972C491.512 278.553 520.706 316.722 523.219 357.061C524.476 377.223 519.069 397.935 504.164 417.157C489.256 436.383 464.838 454.131 428.052 468.339C388.396 482.773 356.654 484.432 331.867 478.009C307.084 471.587 289.231 457.078 277.358 439.13C265.482 421.179 259.586 399.784 258.731 379.603C257.875 359.419 262.062 340.473 270.32 327.413L270.446 327.215L270.255 327.077C223.844 293.55 207.097 246.449 215.851 210.051C220.228 191.853 230.979 176.323 247.595 166.48C264.213 156.636 286.717 152.467 314.618 157.034L314.744 157.055L314.835 156.964C337.089 134.705 358.642 124.371 378.071 122.758C397.497 121.145 414.832 128.246 428.665 140.923C456.34 166.289 469.97 213.969 458.134 258.692Z" fill="white" stroke="black" stroke-width="0.5"/>
<path d="M580.621 429.834L580.578 429.902L580.567 429.981C579.994 434.017 577.008 437.647 572.027 440.99C567.053 444.329 560.151 447.339 551.873 450.153C536.202 455.481 515.69 460.08 494.197 464.899C493.496 465.056 492.794 465.213 492.092 465.371C492.286 465.209 492.502 465.029 492.739 464.831C493.929 463.835 495.636 462.386 497.703 460.576C501.836 456.957 507.41 451.893 513.172 446.113C518.934 440.333 524.889 433.833 529.782 427.341C534.579 420.978 538.376 414.594 539.951 408.89C540.019 408.9 540.096 408.911 540.183 408.925C540.548 408.98 541.082 409.064 541.76 409.175C543.115 409.397 545.042 409.732 547.326 410.178C551.896 411.07 557.889 412.409 563.595 414.197C569.312 415.988 574.698 418.216 578.085 420.87C579.777 422.196 580.935 423.602 581.411 425.078C581.881 426.535 581.703 428.11 580.621 429.834Z" fill="#FFD057" stroke="black" stroke-width="0.75"/>
<path d="M386.031 249.72C392.736 268.141 383.232 288.511 364.804 295.219C346.376 301.926 326.002 292.43 319.297 274.009C317.617 269.393 317.489 266.126 318.446 263.701C319.4 261.284 321.468 259.618 324.391 258.285C327.318 256.95 331.04 255.977 335.228 254.907C335.398 254.864 335.569 254.82 335.74 254.777C339.781 253.746 344.217 252.614 348.703 250.981C353.189 249.348 357.314 247.364 361.072 245.556C361.232 245.48 361.39 245.403 361.548 245.327C365.444 243.454 368.922 241.808 372.022 240.949C375.117 240.091 377.772 240.038 380.057 241.277C382.349 242.519 384.351 245.104 386.031 249.72Z" fill="#FFD057" stroke="black" stroke-width="0.75"/>
<path d="M298.76 219.411C302.1 228.589 297.365 238.738 288.183 242.08C279.002 245.422 268.851 240.69 265.51 231.512C262.169 222.334 266.905 212.185 276.086 208.843C285.268 205.501 295.419 210.233 298.76 219.411Z" fill="black" stroke="black" stroke-width="0.5"/>
<path d="M402.728 181.569C406.068 190.747 401.333 200.897 392.152 204.239C382.97 207.58 372.819 202.849 369.478 193.671C366.138 184.493 370.873 174.344 380.054 171.002C389.236 167.66 399.387 172.391 402.728 181.569Z" fill="black" stroke="black" stroke-width="0.5"/>
<g clip-path="url(#clip0)">
<path d="M446.815 321.117C447.075 315.932 450.264 311.215 455.303 309.381C462.09 306.911 469.092 310.938 472.225 317.634C472.225 317.634 473.182 319.231 473.577 322.59C474.116 327.163 473.141 331.756 471.03 335.758L459.768 356.707L437.957 347.795C433.767 346.087 430.068 343.194 427.54 339.345C425.685 336.518 425.391 334.679 425.391 334.679C423.487 327.536 426.262 319.95 433.049 317.48C438.089 315.646 443.282 317.313 446.815 321.117Z" fill="#D75A4A" fill-opacity="0.2"/>
</g>
<defs>
<clipPath id="clip0">
<rect width="50" height="50" fill="white" transform="translate(420 320.101) rotate(-20)"/>
</clipPath>
</defs>
</svg>
